<svg xmlns="http://www.w3.org/2000/svg" viewBox="0 0 95.6 119.41"><defs><style>.cls-1,.cls-2{fill:#fff;}.cls-2{fill-rule:evenodd;}</style></defs><title>Asset 2</title><g id="Layer_2" data-name="Layer 2"><g id="Layer_1-2" data-name="Layer 1"><path class="cls-1" d="M33.61,82.26l3-5a13.5,13.5,0,0,0,4.12,2.54,12.64,12.64,0,0,0,4.94,1.09,5.86,5.86,0,0,0,3.27-.75,2.35,2.35,0,0,0,1.11-2,1.64,1.64,0,0,0-.86-1.4,6.64,6.64,0,0,0-2.24-.84l-3-.62a33.48,33.48,0,0,1-3.3-.87,15.12,15.12,0,0,1-3-1.35,6.22,6.22,0,0,1-2.22-2.35,7.12,7.12,0,0,1-.86-3.61,7.37,7.37,0,0,1,2.86-5.86q2.86-2.4,7.87-2.4a16.35,16.35,0,0,1,10.52,3.58L53,67.3a9.67,9.67,0,0,0-3.34-2.17,11.4,11.4,0,0,0-4.4-.87,5.35,5.35,0,0,0-3,.73,2.18,2.18,0,0,0-1.12,1.88,1.42,1.42,0,0,0,.64,1.19,4.4,4.4,0,0,0,1.73.72l2.5.55,2.85.63a14.8,14.8,0,0,1,2.86,1,13.72,13.72,0,0,1,2.5,1.47A5.88,5.88,0,0,1,56,74.66,7.85,7.85,0,0,1,56.68,78a7.31,7.31,0,0,1-3,6q-3,2.33-8.35,2.33a19.74,19.74,0,0,1-6.52-1.09A14.56,14.56,0,0,1,33.61,82.26Z"/><path class="cls-1" d="M58.31,85.67V59.49h4v3.79a11.06,11.06,0,0,1,3.47-3,9.62,9.62,0,0,1,5-1.46,7.35,7.35,0,0,1,4.61,1.37,6.56,6.56,0,0,1,2.38,3.53,10.53,10.53,0,0,1,3.65-3.42,9.91,9.91,0,0,1,5.14-1.48,7.06,7.06,0,0,1,5.45,2c1.24,1.32,1.85,3.3,1.85,5.93V85.67h-4V67.89q0-5.43-4.84-5.43a7.51,7.51,0,0,0-3.92,1.18,8.87,8.87,0,0,0-3,2.84V85.67h-4V67.89q0-5.43-4.85-5.43a7.25,7.25,0,0,0-3.84,1.2,9.79,9.79,0,0,0-3,2.88V85.67Z"/><path class="cls-2" d="M34,106.7C29.68,105,30,103.15,30,103.15a4.36,4.36,0,0,1,4.75-1.91c3.45.58,14.36,7.41,19.7,9.68s14.87-2.77,5.55-5.77-19.17-.91-30.69-8.08-15.73-25.42-14-30.91,3-4.28,2.5,4.31,3.64,5.18,3.91.87-2.79-5.27-3-10.49S25.7,43.51,33.25,40.58s8-.85,8.74,1.44,2.32,5.47,4.67,4.34a3.25,3.25,0,0,0,.23-5.86c-2.58-1.47-3.42-4.56-1.28-4s4.42,1.6,8.89,4.6,8.38.77,6.66-1.13S56,38.13,53.27,38.13s-3.12-1.46-1.5-1.47,11.53-2,17.41-8.39c14.64-15.83-32.43,5.53-34.11-.88-.87-3.31,5.52-7.7,4.81-10.11s-5.41.62-8.93,5.38-6.42,9.57-8.43,7.19,3.07-11,11.83-15.87S48,5.56,47.85,1.66,37.25.56,29.15,12.25s-7.56,17.84-8.72,17.8-1.77-3,.89-7.19-.85-2.94-3.34.87-3.86,8.88-5.26,12.39-4.91,5.05-3.51,1.54,4.13-9,1.5-9.92C8.88,27.12,4,30.39,1.6,42.86S.92,65.24,2.36,69s1.35,7.38-.17,6.52S-.26,75,.07,77.06,1.16,85.22,8.53,95s10.4,8.54,11.06,7.06-3.4-2.55-.82-3.85,2.53.37,4.29,3.68,7.27,10.59,12.92,9.35S38.37,108.4,34,106.7Z"/><path class="cls-2" d="M70.67,20.17c.29.63,2.49-.89,2.49-.89a10.13,10.13,0,0,1,6.82,1c3.33,1.9,7.57,1.63,7.87-2.28s-7.72-3.39-11.77-1.78S70.38,19.54,70.67,20.17Z"/><path class="cls-2" d="M93.41,30c-3.55-4.17-9.17-7.71-16.35-5.88-4.48,1.14-4.17,2.81-2.36,2.61s3.7.18.66,1.78c-6.64,3.49,3.21,1.81,5,2.52,2.51,1,2.5,2.2,3,3,.63,1,1.54-.28.29-2.72-2.34-4.59,4.17,2.37,6.83,6.61S98.62,36.14,93.41,30Z"/><path class="cls-2" d="M79.75,114.12C71,115,63,117,55.37,115.16a111.41,111.41,0,0,1-11.54-3.35S56.22,118,68,119.26,88.48,113.24,79.75,114.12Z"/><path class="cls-2" d="M67.81,108.39a22.4,22.4,0,0,0-3.3,2.13s3.32,2.66,6.39.4S69.76,107.35,67.81,108.39Z"/><path class="cls-2" d="M54,21.21c3.27-.82,3.76-.06,5.58-3.1s7-1.11,10.27-4.68-2.63-9.62-18.05-.16S53.49,21.44,54,21.21Z"/></g></g></svg>